<svg xmlns="http://www.w3.org/2000/svg" version="1.1" xmlns:xlink="http://www.w3.org/1999/xlink" xmlns:svgjs="http://svgjs.dev/svgjs" width="1500" height="272" viewBox="0 0 1500 272"><g transform="matrix(1,0,0,1,-0.9090909090909918,0.4269606420272112)"><svg viewBox="0 0 396 72" data-background-color="#ffffff" preserveAspectRatio="xMidYMid meet" height="272" width="1500" xmlns="http://www.w3.org/2000/svg" xmlns:xlink="http://www.w3.org/1999/xlink"><g id="tight-bounds" transform="matrix(1,0,0,1,0.2400000000000091,-0.11301899347779454)"><svg viewBox="0 0 395.52 72.22603798695559" height="72.22603798695559" width="395.52"><g><svg viewBox="0 0 547.2084508792639 99.925916160975" height="72.22603798695559" width="395.52"><g><rect width="6.520566022389438" height="86.76635267233718" x="128.09834029564556" y="6.579781744318915" fill="#35a6de" opacity="1" stroke-width="0" stroke="transparent" fill-opacity="1" class="rect-yte-0" data-fill-palette-color="primary" rx="1%" id="yte-0" data-palette-color="#35a6de"></rect></g><g transform="matrix(1,0,0,1,151.68845087926388,13.810311133680344)"><svg viewBox="0 0 395.52 72.30529389361432" height="72.30529389361432" width="395.52"><g id="textblocktransform"><svg viewBox="0 0 395.52 72.30529389361432" height="72.30529389361432" width="395.52" id="textblock"><g><svg viewBox="0 0 395.52 72.30529389361432" height="72.30529389361432" width="395.52"><g transform="matrix(1,0,0,1,0,0)"><svg width="395.52" viewBox="2.25 -34.86 192.28 35.15" height="72.30529389361432" data-palette-color="#35a6de"><path d="M5.64-13.06L5.64 0 2.25 0 2.25-34.86 10.33-34.86Q14.67-34.86 16.66-33.45 18.65-32.03 18.87-28.76L18.87-28.76Q19.12-26.03 19.09-23.75 19.07-21.48 18.87-19.17L18.87-19.17Q18.75-16.94 17.63-15.61 16.5-14.28 14.11-13.65L14.11-13.65 20.24 0 16.53 0 10.82-13.06 5.64-13.06ZM10.33-31.74L5.64-31.74 5.64-16.19 10.23-16.19Q12.99-16.19 14.2-16.87 15.41-17.55 15.5-18.99L15.5-18.99Q15.87-23.97 15.5-28.93L15.5-28.93Q15.41-30.37 14.21-31.05 13.01-31.74 10.33-31.74L10.33-31.74ZM30.98 0.29L30.98 0.29Q26.95 0.29 25.23-0.98 23.51-2.25 23.39-5.13L23.39-5.13Q23.29-6.93 23.25-9.38 23.22-11.82 23.25-14.28 23.29-16.75 23.39-18.58L23.39-18.58Q23.51-21.53 25.28-22.8 27.05-24.07 30.98-24.07L30.98-24.07Q34.69-24.07 36.35-22.83 38.01-21.58 38.18-18.73L38.18-18.73Q38.23-17.87 38.28-15.75 38.33-13.62 38.13-11.23L38.13-11.23 26.44-11.23Q26.44-9.69 26.46-8.11 26.49-6.52 26.56-4.81L26.56-4.81Q26.58-3.47 27.59-2.95 28.59-2.44 30.88-2.44L30.88-2.44Q33.15-2.44 34.08-2.95 35.01-3.47 35.1-4.81L35.1-4.81Q35.18-6.15 35.1-8.47L35.1-8.47 38.13-8.47Q38.25-7.76 38.24-6.82 38.23-5.88 38.18-5.13L38.18-5.13Q38.01-2.25 36.44-0.98 34.86 0.29 30.98 0.29ZM26.44-13.82L26.44-13.82 35.15-13.82Q35.2-15.48 35.2-16.99 35.2-18.51 35.1-19.07L35.1-19.07Q35.01-20.29 34.06-20.81 33.1-21.34 30.98-21.34L30.98-21.34Q28.61-21.34 27.6-20.81 26.58-20.29 26.56-19.07L26.56-19.07Q26.49-17.65 26.45-16.36 26.41-15.06 26.44-13.82ZM49.78 0.29L49.78 0.29Q45.97 0.29 44.64-0.98 43.31-2.25 43.31-5.13L43.31-5.13 43.31-21.02 40.96-21.02 40.96-23.75 43.38-23.75 43.38-30.49 46.48-30.49 46.48-23.75 51.85-23.75 51.85-21.02 46.45-21.02 46.45-4.79Q46.45-3.44 47.02-2.93 47.58-2.42 49.85-2.42L49.85-2.42Q50.78-2.42 51.28-2.45 51.78-2.49 52.44-2.51L52.44-2.51 52.44 0.1Q51.85 0.2 51.17 0.24 50.48 0.29 49.78 0.29ZM60.32 0.29L60.32 0.29Q57.59 0.29 56.21-0.93 54.83-2.15 54.83-4.96L54.83-4.96 54.83-23.75 57.95-23.75 57.95-4.69Q57.95-3.49 58.71-2.93 59.47-2.37 61.17-2.37L61.17-2.37Q62.91-2.37 64.21-2.95 65.52-3.54 66.13-4.59L66.13-4.59 66.13-23.75 69.3-23.75 69.3 0 66.13 0 66.13-2.25 65.47-2.25Q63.86 0.29 60.32 0.29ZM77.09-19.19L77.09 0 73.94 0 73.94-23.75 77.09-23.75 77.09-21.53 77.77-21.53Q78.41-22.75 79.46-23.41 80.51-24.07 82.07-24.07L82.07-24.07Q84.41-24.07 85.55-22.84 86.68-21.61 86.68-18.58L86.68-18.58Q86.68-17.92 86.64-17.02 86.59-16.11 86.49-15.41L86.49-15.41 83.46-15.41Q83.51-15.65 83.52-16.26 83.53-16.87 83.55-17.48 83.56-18.09 83.56-18.31L83.56-18.31Q83.56-20.12 82.95-20.76 82.34-21.41 81-21.41L81-21.41Q78.14-21.41 77.09-19.19L77.09-19.19ZM93.57-19.19L93.57 0 90.42 0 90.42-23.75 93.57-23.75 93.57-21.53 94.32-21.53Q95.08-22.75 96.31-23.41 97.55-24.07 99.43-24.07L99.43-24.07Q102.18-24.07 103.53-22.86 104.87-21.66 104.87-18.82L104.87-18.82 104.87 0 101.75 0 101.75-19.09Q101.75-20.31 100.98-20.86 100.21-21.41 98.5-21.41L98.5-21.41Q96.79-21.41 95.5-20.83 94.2-20.24 93.57-19.19L93.57-19.19ZM117.27-31.74L117.27 0 113.88 0 113.88-31.74 107.21-31.74 107.21-34.86 123.96-34.86 123.96-31.74 117.27-31.74ZM129.67-19.19L129.67 0 126.52 0 126.52-23.75 129.67-23.75 129.67-21.53 130.35-21.53Q130.99-22.75 132.04-23.41 133.09-24.07 134.65-24.07L134.65-24.07Q136.99-24.07 138.13-22.84 139.26-21.61 139.26-18.58L139.26-18.58Q139.26-17.92 139.22-17.02 139.17-16.11 139.07-15.41L139.07-15.41 136.04-15.41Q136.09-15.65 136.1-16.26 136.12-16.87 136.13-17.48 136.14-18.09 136.14-18.31L136.14-18.31Q136.14-20.12 135.53-20.76 134.92-21.41 133.58-21.41L133.58-21.41Q130.72-21.41 129.67-19.19L129.67-19.19ZM148.52 0.27L148.52 0.27Q145.54 0.27 144.11-0.9 142.68-2.08 142.44-4.57L142.44-4.57Q142.41-5.05 142.38-5.54 142.34-6.03 142.39-6.49L142.39-6.49Q142.56-8.67 143.75-10.14 144.95-11.62 148.3-12.84L148.3-12.84Q149.66-13.33 151.18-13.72 152.69-14.11 154.18-14.48L154.18-14.48 154.18-18.99Q154.18-20.19 153.28-20.76 152.37-21.34 150.13-21.34L150.13-21.34Q148.17-21.34 147.16-20.85 146.15-20.36 146.05-19.07L146.05-19.07Q146-18.46 146-17.32 146-16.19 146.05-15.41L146.05-15.41 143-15.41Q142.95-16.02 142.9-16.99 142.85-17.97 142.92-18.73L142.92-18.73Q143.05-21.56 144.77-22.81 146.49-24.07 150.25-24.07L150.25-24.07Q154.18-24.07 155.71-22.71 157.23-21.34 157.26-18.21L157.26-18.21 157.26 0 154.18 0 154.18-2.25 153.5-2.25Q152.89-1.03 151.75-0.38 150.61 0.27 148.52 0.27ZM149.3-2.37L149.3-2.37Q152.81-2.37 154.15-4.47L154.15-4.47 154.15-11.87Q152.98-11.62 151.75-11.29 150.52-10.96 148.86-10.4L148.86-10.4Q146.88-9.67 146.22-8.72 145.56-7.76 145.46-6.49L145.46-6.49Q145.49-6.13 145.5-5.7 145.51-5.27 145.56-4.81L145.56-4.81Q145.73-3.64 146.73-3 147.73-2.37 149.3-2.37ZM176.2-15.41L176.2-15.41 173.12-15.41Q173.22-16.26 173.21-17.36 173.2-18.46 173.2-19.07L173.2-19.07Q173.17-20.36 172.18-20.85 171.19-21.34 168.95-21.34L168.95-21.34Q166.65-21.34 165.68-20.85 164.7-20.36 164.67-19.07L164.67-19.07Q164.5-15.23 164.5-11.93 164.5-8.62 164.67-4.81L164.67-4.81Q164.7-3.47 165.68-2.95 166.65-2.44 168.92-2.44L168.92-2.44Q171.17-2.44 172.17-2.95 173.17-3.47 173.2-4.81L173.2-4.81Q173.2-5.47 173.21-6.41 173.22-7.35 173.12-8.47L173.12-8.47 176.2-8.47Q176.32-7.76 176.31-6.82 176.3-5.88 176.25-5.13L176.25-5.13Q176.1-2.25 174.45-0.98 172.8 0.29 168.92 0.29L168.92 0.29Q165.02 0.29 163.32-0.98 161.62-2.25 161.5-5.13L161.5-5.13Q161.4-6.93 161.37-9.38 161.33-11.82 161.37-14.28 161.4-16.75 161.5-18.58L161.5-18.58Q161.62-21.53 163.34-22.8 165.07-24.07 168.95-24.07L168.95-24.07Q172.8-24.07 174.5-22.83 176.2-21.58 176.25-18.73L176.25-18.73Q176.3-17.99 176.31-17.05 176.32-16.11 176.2-15.41ZM183.25-7.89L183.25 0 180.2 0 180.2-31.69 183.2-31.69 183.2-23.88 182.93-13.53 183.76-13.53 186.13-18.14 189.79-23.75 193.11-23.75 187.06-14.18 194.53 0 191.23 0 185.2-10.5 183.25-7.89Z" opacity="1" transform="matrix(1,0,0,1,0,0)" fill="#35a6de" class="wordmark-text-0" data-fill-palette-color="primary" id="text-0"></path></svg></g></svg></g></svg></g></svg></g><g><svg viewBox="0 0 111.02879573441666 99.925916160975" height="99.925916160975" width="111.02879573441666"><g><svg xmlns="http://www.w3.org/2000/svg" xmlns:xlink="http://www.w3.org/1999/xlink" version="1.1" x="0" y="0" viewBox="5.055 8 90 81" enable-background="new 0 0 100 100" xml:space="preserve" height="99.925916160975" width="111.02879573441666" class="icon-icon-0" data-fill-palette-color="accent" id="icon-0"><g fill="#35a6de" data-fill-palette-color="accent"><path d="M83.128 89H95.055S88.662 55.604 84.051 45.364C79.418 35.075 58.616 8 58.616 8H50.698C54.696 13 75.296 40.53 77.004 51.37 78.248 59.273 81.437 79 83.128 89" fill="#35a6de" data-fill-palette-color="accent"></path><path d="M37.132 8H29.181C32.083 13 47.063 40.53 48.77 51.37 50.015 59.273 46.709 79 44.754 89H62.252C62.201 79 61.936 59.273 60.69 51.37 58.983 40.53 40.683 13 37.132 8" fill="#35a6de" data-fill-palette-color="accent"></path><path d="M47.561 8H40.269C43.822 13 62.121 40.53 63.829 51.37 65.072 59.273 65.338 79 65.389 89H79.99C78.3 79 75.11 59.273 73.866 51.37 72.159 40.53 51.56 13 47.561 8" fill="#35a6de" data-fill-palette-color="accent"></path><path d="M30.889 49.489C29.332 39.609 17.606 16 13.491 8H6.285S19.234 38.661 19.007 49.489C18.787 59.941 5.055 89 5.055 89H22.456C25.613 80 32.215 57.906 30.889 49.489" fill="#35a6de" data-fill-palette-color="accent"></path><path d="M45.633 51.37C43.925 40.53 28.946 13 26.043 8H16.628C20.743 16 32.47 39.609 34.026 49.489 35.352 57.906 28.75 80 25.593 89H41.617C43.57 79 46.878 59.273 45.633 51.37" fill="#35a6de" data-fill-palette-color="accent"></path></g></svg></g></svg></g></svg></g><defs></defs></svg><rect width="395.52" height="72.22603798695559" fill="none" stroke="none" visibility="hidden"></rect></g></svg></g></svg>